<svg width="211" height="94" viewBox="0 0 211 94" fill="none" xmlns="http://www.w3.org/2000/svg">
<g filter="url(#filter0_d_3559_8880)">
<path d="M4 27.2295H10.2331C10.9566 27.2295 11.6863 27.2816 12.416 27.3828C13.1488 27.484 13.8049 27.6894 14.3874 27.996C14.9699 28.3026 15.4421 28.7318 15.8039 29.2837C16.1656 29.8355 16.3465 30.5652 16.3465 31.4789C16.3465 32.4232 16.0829 33.205 15.5555 33.8274C15.0282 34.4498 14.3322 34.8943 13.4676 35.1611V35.2071C14.0195 35.2868 14.5192 35.4401 14.9669 35.667C15.4145 35.8938 15.8008 36.1851 16.1227 36.5408C16.4446 36.8933 16.693 37.3072 16.8677 37.7794C17.0394 38.2515 17.1283 38.7544 17.1283 39.2909C17.1283 40.1739 16.9383 40.9066 16.5611 41.4984C16.184 42.087 15.6966 42.5653 15.0987 42.9271C14.5008 43.2889 13.8263 43.5495 13.0813 43.7058C12.3332 43.8653 11.5913 43.9419 10.8493 43.9419H4V27.2295ZM7.68219 33.9102H10.3496C10.6347 33.9102 10.9137 33.8795 11.1866 33.8151C11.4625 33.7538 11.7108 33.6496 11.9285 33.5085C12.1493 33.3675 12.3271 33.1774 12.4589 32.9413C12.5938 32.7053 12.6613 32.4232 12.6613 32.0921C12.6613 31.7456 12.5846 31.4605 12.4375 31.2305C12.2872 31.0037 12.0941 30.8258 11.858 30.7001C11.6219 30.5744 11.3552 30.4855 11.0547 30.4273C10.7573 30.3721 10.4661 30.3445 10.1809 30.3445H7.67912V33.9102H7.68219ZM7.68219 40.8269H10.9873C11.2724 40.8269 11.5575 40.7963 11.8488 40.7319C12.1401 40.6706 12.4037 40.5602 12.6398 40.4008C12.8759 40.2444 13.069 40.039 13.2193 39.7876C13.3695 39.5362 13.4431 39.2296 13.4431 38.8678C13.4431 38.4754 13.345 38.1565 13.1488 37.9112C12.9525 37.666 12.7042 37.482 12.4068 37.3563C12.1063 37.2306 11.7844 37.1447 11.438 37.0957C11.0915 37.0497 10.7696 37.0252 10.4691 37.0252H7.68219V40.8269Z" fill="white"/>
<path d="M23.8553 27.2295H26.8998L34.1722 43.945H30.0179L28.5769 40.4038H22.0832L20.6913 43.945H16.6289L23.8553 27.2295ZM25.2718 32.0921L23.2421 37.2858H27.326L25.2718 32.0921Z" fill="white"/>
<path d="M35.373 27.2295H41.6061C42.3297 27.2295 43.0594 27.2816 43.789 27.3828C44.5218 27.484 45.1779 27.6894 45.7604 27.996C46.343 28.3026 46.8151 28.7318 47.1769 29.2837C47.5387 29.8355 47.7196 30.5652 47.7196 31.4789C47.7196 32.4232 47.4559 33.205 46.9286 33.8274C46.4012 34.4498 45.7053 34.8943 44.8407 35.1611V35.2071C45.3925 35.2868 45.8923 35.4401 46.3399 35.667C46.7875 35.8938 47.1738 36.1851 47.4958 36.5408C47.8177 36.8933 48.066 37.3072 48.2408 37.7794C48.4125 38.2515 48.5014 38.7544 48.5014 39.2909C48.5014 40.1739 48.3113 40.9066 47.9342 41.4984C47.5571 42.087 47.0696 42.5653 46.4717 42.9271C45.8739 43.2889 45.1994 43.5495 44.4544 43.7058C43.7063 43.8653 42.9643 43.9419 42.2224 43.9419H35.3761V27.2295H35.373ZM39.0583 33.9102H41.7257C42.0108 33.9102 42.2898 33.8795 42.5627 33.8151C42.8386 33.7538 43.0869 33.6496 43.3046 33.5085C43.5223 33.3675 43.7032 33.1774 43.835 32.9413C43.9699 32.7053 44.0374 32.4232 44.0374 32.0921C44.0374 31.7456 43.9607 31.4605 43.8136 31.2305C43.6633 31.0037 43.4702 30.8258 43.2341 30.7001C42.998 30.5744 42.7313 30.4855 42.4308 30.4273C42.1334 30.3721 41.8422 30.3445 41.557 30.3445H39.0552V33.9102H39.0583ZM39.0583 40.8269H42.3634C42.6485 40.8269 42.9336 40.7963 43.2249 40.7319C43.5162 40.6706 43.7798 40.5602 44.0159 40.4008C44.252 40.2444 44.4452 40.039 44.5954 39.7876C44.7456 39.5362 44.8192 39.2296 44.8192 38.8678C44.8192 38.4754 44.7211 38.1565 44.5249 37.9112C44.3287 37.666 44.0803 37.482 43.7829 37.3563C43.4825 37.2306 43.1605 37.1447 42.8141 37.0957C42.4676 37.0497 42.1457 37.0252 41.8452 37.0252H39.0583V40.8269Z" fill="white"/>
<path d="M100.862 31.3137C100.562 30.9366 100.157 30.6576 99.6452 30.4767C99.1332 30.2958 98.6488 30.2038 98.1919 30.2038C97.9252 30.2038 97.6493 30.2376 97.3672 30.2989C97.0821 30.3633 96.8153 30.4614 96.5639 30.5932C96.3125 30.7281 96.1071 30.9029 95.9507 31.1236C95.7944 31.3444 95.7147 31.6111 95.7147 31.9269C95.7147 32.4297 95.9047 32.816 96.2819 33.0828C96.659 33.3495 97.1342 33.5794 97.7106 33.7665C98.2839 33.9565 98.9032 34.1436 99.5624 34.3337C100.222 34.5237 100.841 34.7905 101.414 35.1369C101.988 35.4834 102.466 35.9463 102.843 36.5289C103.22 37.1114 103.41 37.8901 103.41 38.8651C103.41 39.7941 103.238 40.6035 102.892 41.2964C102.546 41.9893 102.076 42.5626 101.488 43.0194C100.899 43.4763 100.212 43.8135 99.4336 44.0343C98.6549 44.255 97.8332 44.3654 96.9656 44.3654C95.8802 44.3654 94.8715 44.1998 93.9426 43.8687C93.0136 43.5376 92.149 43.0041 91.3457 42.2622L93.9671 39.3833C94.3442 39.8861 94.8194 40.2785 95.3958 40.5514C95.9691 40.8273 96.5639 40.9653 97.1771 40.9653C97.4745 40.9653 97.778 40.9285 98.0846 40.858C98.3912 40.7875 98.6672 40.6801 98.9094 40.5391C99.1546 40.3981 99.3509 40.2172 99.498 39.9964C99.6483 39.7757 99.7218 39.5151 99.7218 39.2177C99.7218 38.7149 99.5287 38.3163 99.1424 38.025C98.7561 37.7338 98.2717 37.4854 97.6891 37.2831C97.1066 37.0777 96.4781 36.8722 95.8005 36.6699C95.1229 36.4645 94.4944 36.1885 93.9119 35.8452C93.3294 35.4987 92.8449 35.0419 92.4586 34.4747C92.0723 33.9075 91.8792 33.1594 91.8792 32.2335C91.8792 31.3352 92.057 30.5503 92.4096 29.8727C92.7622 29.1951 93.2343 28.631 93.826 28.1742C94.4178 27.7174 95.0984 27.377 95.868 27.1471C96.6406 26.9202 97.4347 26.8037 98.2533 26.8037C99.1976 26.8037 100.111 26.9386 100.991 27.2053C101.871 27.4721 102.668 27.9228 103.376 28.5513L100.862 31.3137Z" fill="white"/>
<path d="M110.708 27.2295H113.752L121.025 43.945H116.87L115.429 40.4038H108.936L107.544 43.945H103.484L110.708 27.2295ZM112.124 32.0921L110.095 37.2858H114.178L112.124 32.0921Z" fill="white"/>
<path d="M121.898 27.2295H133.114V30.6296H125.584V34.0297H132.55V37.4299H125.584V43.945H121.902V27.2295H121.898Z" fill="white"/>
<path d="M138.538 27.2295H141.582L148.855 43.945H144.7L143.259 40.4038H136.766L135.374 43.945H131.314L138.538 27.2295ZM139.954 32.0921L137.925 37.2858H142.008L139.954 32.0921Z" fill="white"/>
<path d="M149.59 27.2295H156.059C156.908 27.2295 157.715 27.3123 158.478 27.4778C159.241 27.6434 159.91 27.9193 160.486 28.3056C161.06 28.6919 161.516 29.2101 161.857 29.8631C162.194 30.5162 162.363 31.3317 162.363 32.3067C162.363 33.4871 162.056 34.4896 161.443 35.3174C160.83 36.1422 159.931 36.6664 158.751 36.8872L163 43.945H158.585L155.09 37.2643H153.272V43.945H149.59V27.2295ZM153.272 34.1462H155.443C155.774 34.1462 156.123 34.134 156.494 34.1095C156.865 34.0849 157.199 34.0144 157.497 33.8979C157.794 33.7783 158.043 33.5944 158.239 33.343C158.435 33.0916 158.533 32.7359 158.533 32.2791C158.533 31.856 158.447 31.5157 158.273 31.2643C158.101 31.0129 157.88 30.8197 157.613 30.6848C157.347 30.5499 157.04 30.461 156.694 30.4119C156.347 30.3659 156.01 30.3414 155.679 30.3414H153.272V34.1462Z" fill="white"/>
<path d="M69.064 58.028H53.7129V4H72.6328C81.0978 4 87.9839 10.8861 87.9839 19.3512H82.7167C82.7167 13.7926 78.1944 9.26728 72.6328 9.26728H58.9802V52.7576H69.064V58.028Z" fill="white"/>
<path d="M87.9843 19.3506H82.717C82.717 20.5248 82.5116 21.6531 82.1406 22.7017L87.1074 24.4523C87.6746 22.858 87.9843 21.1411 87.9843 19.3506Z" fill="white"/>
<path d="M82.4442 41.5734C82.484 41.9383 82.5116 42.3062 82.5116 42.6772C82.5116 48.2357 77.9893 52.761 72.4277 52.761V58.0283C80.8928 58.0283 87.7789 51.1422 87.7789 42.6772C87.7789 41.7022 87.6838 40.7364 87.503 39.7891L82.4442 41.5734Z" fill="white"/>
<path d="M76.1169 42.6734C76.1169 37.1149 80.6392 32.5895 86.2008 32.5895V27.3223C77.7357 27.3223 70.8496 34.2084 70.8496 42.6734C70.8496 43.6484 70.9447 44.6142 71.1255 45.5615L76.1874 43.7771C76.1445 43.4123 76.1169 43.0475 76.1169 42.6734Z" fill="white"/>
</g>
<g filter="url(#filter1_d_3559_8880)">
<path d="M126 77.2179C136.788 78.9363 162.252 79.1803 169.26 63.1842C175.535 48.8641 166.949 47.2411 160.344 48.8641C153.74 50.487 152.559 66.8477 169.26 59.7473C186.102 52.5872 193.367 48.8641 197 46" stroke="white" stroke-width="0.8" stroke-dasharray="3 3" shape-rendering="crispEdges"/>
</g>
<g clip-path="url(#clip0_3559_8880)" filter="url(#filter2_d_3559_8880)">
<path d="M194.444 44.6053L195.207 44.1771L196.541 44.7662L199.338 43.196L195.64 39.5858L196.657 39.0148L201.628 41.9112L204.425 40.341C204.646 40.2173 204.869 40.1871 205.094 40.2503C205.319 40.3135 205.493 40.4554 205.617 40.6758C205.74 40.8962 205.771 41.119 205.707 41.344C205.644 41.569 205.502 41.7434 205.282 41.8671L202.484 43.4373L202.367 49.1887L201.35 49.7597L200.195 44.7221L197.397 46.2923L197.205 47.7379L196.442 48.1662L195.951 46.1002L194.444 44.6053Z" fill="white"/>
</g>
<g filter="url(#filter3_d_3559_8880)">
<path d="M38.14 74.82C38.0333 74.8067 37.94 74.8 37.86 74.8C37.78 74.7867 37.6933 74.7733 37.6 74.76C37.4 74.7333 37.2 74.7133 37 74.7C36.8 74.6733 36.6067 74.6267 36.42 74.56C36.06 74.4533 35.7533 74.3 35.5 74.1C35.14 73.78 34.94 73.3933 34.9 72.94C34.8733 72.6867 34.8733 72.4467 34.9 72.22C34.9267 71.98 34.9733 71.74 35.04 71.5C35.1333 71.1533 35.2467 70.8133 35.38 70.48C35.5267 70.1467 35.6867 69.82 35.86 69.5C36.2467 68.82 36.6733 68.1733 37.14 67.56C37.62 66.9467 38.16 66.38 38.76 65.86C39.0667 65.5933 39.3867 65.3467 39.72 65.12C40.0667 64.8933 40.4267 64.68 40.8 64.48C41.0267 64.36 41.2667 64.26 41.52 64.18C41.7733 64.0867 42.0333 64.0267 42.3 64C42.4867 63.9733 42.6733 63.9733 42.86 64C43.06 64.0133 43.2533 64.0533 43.44 64.12C44.0267 64.36 44.42 64.7733 44.62 65.36C44.7933 65.9333 44.8133 66.4733 44.68 66.98C44.5467 67.4867 44.36 67.9667 44.12 68.42C43.88 68.8733 43.5933 69.3067 43.26 69.72C43.22 69.76 43.1867 69.7867 43.16 69.8C43.12 69.84 43.06 69.8467 42.98 69.82C42.9133 69.8067 42.88 69.7533 42.88 69.66C42.88 69.5933 42.9067 69.5067 42.96 69.4C43.0667 69.08 43.1733 68.7667 43.28 68.46C43.3867 68.14 43.48 67.8133 43.56 67.48C43.6133 67.2667 43.6533 67.04 43.68 66.8C43.72 66.52 43.6867 66.2333 43.58 65.94C43.46 65.5933 43.2067 65.3867 42.82 65.32C42.6733 65.2933 42.52 65.2867 42.36 65.3C42.2133 65.3133 42.0667 65.34 41.92 65.38C41.76 65.42 41.6067 65.48 41.46 65.56C41.3133 65.6267 41.1667 65.6933 41.02 65.76C40.3533 66.1333 39.7533 66.5667 39.22 67.06C38.6867 67.5533 38.2 68.1067 37.76 68.72C37.4533 69.1467 37.1667 69.5933 36.9 70.06C36.6467 70.5133 36.4333 70.9933 36.26 71.5C36.1533 71.8467 36.08 72.1867 36.04 72.52C36 72.8933 36.1533 73.1733 36.5 73.36C36.6067 73.4267 36.7133 73.48 36.82 73.52C36.94 73.5467 37.0533 73.5733 37.16 73.6C37.5067 73.7067 37.8533 73.7933 38.2 73.86C38.56 73.9133 38.9133 73.9733 39.26 74.04C39.5267 74.08 39.78 74.1333 40.02 74.2C40.2733 74.2533 40.5267 74.3133 40.78 74.38C40.8467 74.4067 40.9133 74.4333 40.98 74.46C41.06 74.4733 41.1333 74.4933 41.2 74.52C41.3333 74.6 41.42 74.7133 41.46 74.86C41.46 74.9267 41.4667 74.9733 41.48 75C41.4933 75.32 41.3467 75.48 41.04 75.48C40.6533 75.48 40.26 75.5333 39.86 75.64C38.7667 75.9333 37.7933 76.44 36.94 77.16C36.58 77.4667 36.3 77.8267 36.1 78.24C35.9667 78.5067 35.92 78.7333 35.96 78.92C36 79.0933 36.1267 79.28 36.34 79.48C36.6733 79.7867 37.0333 79.9867 37.42 80.08C37.7133 80.1467 38 80.2 38.28 80.24C38.5733 80.2933 38.8733 80.32 39.18 80.32C39.4333 80.3333 39.68 80.32 39.92 80.28C40.16 80.24 40.4 80.1867 40.64 80.12C41.08 79.9733 41.5 79.8 41.9 79.6C42.3133 79.4 42.7067 79.16 43.08 78.88C43.2667 78.7333 43.4333 78.58 43.58 78.42C43.74 78.2467 43.8733 78.0533 43.98 77.84C44.0333 77.7467 44.08 77.66 44.12 77.58C44.1733 77.4867 44.22 77.3933 44.26 77.3C44.3 77.2067 44.36 77.12 44.44 77.04C44.52 76.9333 44.6333 76.8933 44.78 76.92C44.9133 76.96 45 77.0533 45.04 77.2C45.0667 77.3333 45.06 77.48 45.02 77.64C44.9933 77.7333 44.96 77.8267 44.92 77.92C44.8933 78 44.86 78.0867 44.82 78.18C44.7267 78.42 44.64 78.6267 44.56 78.8C44.4933 78.96 44.4133 79.1133 44.32 79.26C44.2267 79.4067 44.12 79.54 44 79.66C43.8 79.8867 43.5867 80.0933 43.36 80.28C43.1467 80.4667 42.9133 80.6333 42.66 80.78C42.2467 81.0467 41.82 81.2733 41.38 81.46C40.94 81.6467 40.48 81.78 40 81.86C39.6533 81.9267 39.3 81.96 38.94 81.96C38.5933 81.96 38.2467 81.9333 37.9 81.88C37.74 81.8533 37.58 81.8267 37.42 81.8C37.26 81.7733 37.1067 81.7467 36.96 81.72C36.2267 81.5467 35.58 81.18 35.02 80.62C34.5933 80.1933 34.34 79.7067 34.26 79.16C34.1933 78.6133 34.3133 78.08 34.62 77.56C34.8067 77.2133 35.0267 76.9067 35.28 76.64C35.5333 76.36 35.8133 76.1067 36.12 75.88C36.6533 75.52 37.2333 75.2133 37.86 74.96C37.9133 74.9333 37.98 74.9067 38.06 74.88C38.0733 74.8667 38.1 74.8467 38.14 74.82ZM47.815 77.12C47.855 77.1067 47.8817 77.0933 47.895 77.08C47.9083 77.0533 47.9217 77.0267 47.935 77C48.2417 76.6133 48.5417 76.2267 48.835 75.84C49.1417 75.4533 49.4417 75.0533 49.735 74.64C49.7617 74.6133 49.8017 74.56 49.855 74.48C49.9617 74.3733 50.0883 74.3333 50.235 74.36C50.395 74.3867 50.495 74.4867 50.535 74.66C50.5617 74.8467 50.5217 74.9933 50.415 75.1C50.0017 75.4867 49.6217 75.9067 49.275 76.36C48.9283 76.8 48.575 77.24 48.215 77.68C48.135 77.8 48.1283 77.9333 48.195 78.08C48.3017 78.24 48.4083 78.3933 48.515 78.54C48.6217 78.6867 48.7483 78.8267 48.895 78.96C49.295 79.2933 49.7417 79.4 50.235 79.28C50.595 79.1867 50.9283 79.0333 51.235 78.82C51.7417 78.4867 52.195 78.08 52.595 77.6C52.7017 77.48 52.8017 77.36 52.895 77.24C53.0017 77.12 53.1083 77 53.215 76.88C53.2417 76.8667 53.2817 76.8333 53.335 76.78C53.4017 76.74 53.4617 76.7333 53.515 76.76C53.595 76.8 53.615 76.8667 53.575 76.96C53.575 76.9867 53.5683 77.0067 53.555 77.02C53.5417 77.0333 53.5283 77.0533 53.515 77.08C53.2483 77.4133 52.975 77.7467 52.695 78.08C52.4283 78.4 52.135 78.7067 51.815 79C51.6017 79.2 51.3817 79.38 51.155 79.54C50.9283 79.6867 50.6817 79.8133 50.415 79.92C49.6683 80.2267 48.955 80.2 48.275 79.84C48.1017 79.7467 47.9417 79.6467 47.795 79.54C47.6483 79.42 47.5083 79.2933 47.375 79.16C47.3083 79.0933 47.2683 79.0667 47.255 79.08C47.2417 79.08 47.2083 79.1133 47.155 79.18C46.8883 79.54 46.6483 79.92 46.435 80.32L46.315 80.5C46.235 80.58 46.135 80.6 46.015 80.56C45.9217 80.52 45.875 80.4333 45.875 80.3C45.875 80.26 45.8817 80.22 45.895 80.18C45.9083 80.1533 45.9283 80.12 45.955 80.08C46.195 79.5867 46.475 79.1067 46.795 78.64C46.8483 78.5467 46.8483 78.4533 46.795 78.36C46.3683 77.6133 46.135 76.8133 46.095 75.96C46.095 75.7333 46.175 75.5067 46.335 75.28C46.4017 75.1867 46.5083 75.12 46.655 75.08C46.8017 75.04 46.935 75.04 47.055 75.08C47.295 75.1867 47.4417 75.3467 47.495 75.56C47.5617 75.7867 47.595 75.9867 47.595 76.16C47.6083 76.3067 47.6283 76.4533 47.655 76.6C47.695 76.7467 47.735 76.8933 47.775 77.04C47.7883 77.0533 47.795 77.0667 47.795 77.08C47.795 77.0933 47.8017 77.1067 47.815 77.12ZM53.6994 79.54C53.7127 79.4867 53.7327 79.42 53.7594 79.34C53.8527 78.8867 53.9527 78.44 54.0594 78C54.166 77.56 54.2927 77.1267 54.4394 76.7C54.506 76.54 54.566 76.3867 54.6194 76.24C54.686 76.08 54.7594 75.9267 54.8394 75.78C54.906 75.6333 54.986 75.4933 55.0794 75.36C55.1727 75.2133 55.286 75.08 55.4194 74.96C55.6194 74.76 55.8327 74.6667 56.0594 74.68C56.286 74.6933 56.4927 74.8067 56.6794 75.02C56.7594 75.1267 56.826 75.24 56.8794 75.36C56.9327 75.4667 56.9794 75.58 57.0194 75.7C57.0727 75.86 57.106 76.02 57.1194 76.18C57.146 76.34 57.1727 76.5 57.1994 76.66C57.226 76.74 57.246 76.7867 57.2594 76.8C57.2727 76.8133 57.3194 76.8133 57.3994 76.8C57.746 76.7333 58.0927 76.6933 58.4394 76.68C58.7994 76.6533 59.1594 76.64 59.5194 76.64C59.546 76.64 59.5727 76.6467 59.5994 76.66C59.626 76.66 59.6527 76.66 59.6794 76.66C59.8127 76.7 59.8794 76.7933 59.8794 76.94C59.8527 77.0467 59.786 77.12 59.6794 77.16H59.4394C59.1194 77.1733 58.7994 77.1933 58.4794 77.22C58.1727 77.2467 57.8594 77.2933 57.5394 77.36C57.406 77.3867 57.326 77.4133 57.2994 77.44C57.286 77.4533 57.2794 77.5267 57.2794 77.66C57.266 78.2467 57.146 78.8133 56.9194 79.36C56.786 79.68 56.6127 79.94 56.3994 80.14C56.186 80.3533 55.946 80.48 55.6794 80.52C55.4127 80.56 55.1794 80.5067 54.9794 80.36C54.8194 80.24 54.6794 80.1067 54.5594 79.96C54.4527 79.8 54.386 79.6133 54.3594 79.4C54.3194 79.4133 54.2994 79.4467 54.2994 79.5C54.166 80.06 54.0594 80.62 53.9794 81.18C53.9127 81.74 53.8527 82.3 53.7994 82.86C53.7594 83.3267 53.7527 83.7867 53.7794 84.24C53.8194 84.6933 53.8594 85.1533 53.8994 85.62C53.9394 86.1133 53.9794 86.6 54.0194 87.08C54.0727 87.5733 54.146 88.0667 54.2394 88.56C54.2794 88.8 54.2794 89.04 54.2394 89.28C54.2394 89.3867 54.2194 89.4867 54.1794 89.58C54.086 89.7667 53.9394 89.88 53.7394 89.92C53.5527 89.96 53.386 89.9067 53.2394 89.76C53.1327 89.6533 53.0527 89.54 52.9994 89.42C52.946 89.3 52.8927 89.1733 52.8394 89.04C52.786 88.88 52.746 88.72 52.7194 88.56C52.706 88.4 52.686 88.2333 52.6594 88.06C52.4594 86.62 52.3594 85.1667 52.3594 83.7C52.3594 82.3533 52.4194 81.0067 52.5394 79.66C52.5794 79.22 52.6127 78.78 52.6394 78.34C52.6794 77.9 52.7327 77.46 52.7994 77.02C52.826 76.82 52.8527 76.62 52.8794 76.42C52.9194 76.22 52.966 76.02 53.0194 75.82C53.046 75.7667 53.066 75.72 53.0794 75.68C53.0927 75.64 53.1127 75.6 53.1394 75.56C53.2327 75.4533 53.3394 75.4133 53.4594 75.44C53.5927 75.4667 53.6794 75.54 53.7194 75.66C53.746 75.7267 53.7594 75.8 53.7594 75.88C53.7727 75.96 53.7794 76.0333 53.7794 76.1C53.766 76.3267 53.7594 76.56 53.7594 76.8C53.7594 77.0267 53.746 77.2533 53.7194 77.48C53.706 77.8 53.6927 78.12 53.6794 78.44C53.6794 78.76 53.6794 79.08 53.6794 79.4C53.6794 79.4267 53.6727 79.4533 53.6594 79.48C53.6594 79.4933 53.6727 79.5133 53.6994 79.54ZM55.8594 75.74C55.7527 75.82 55.6327 75.9667 55.4994 76.18C55.366 76.38 55.2394 76.6067 55.1194 76.86C54.9994 77.1 54.8927 77.3467 54.7994 77.6C54.706 77.8533 54.6527 78.06 54.6394 78.22H54.6594C54.686 78.1933 54.706 78.1667 54.7194 78.14C54.9327 77.8733 55.1727 77.66 55.4394 77.5C55.5327 77.4467 55.6194 77.4 55.6994 77.36C55.7927 77.3067 55.886 77.26 55.9794 77.22C56.0594 77.1933 56.0994 77.1333 56.0994 77.04C56.086 76.8667 56.0727 76.7 56.0594 76.54C56.046 76.38 56.0194 76.22 55.9794 76.06C55.966 76.0067 55.9527 75.96 55.9394 75.92C55.926 75.8667 55.8994 75.8067 55.8594 75.74ZM56.0994 77.86C55.6327 78.06 55.2727 78.3533 55.0194 78.74C55.006 78.7533 54.9927 78.7733 54.9794 78.8C54.9794 78.8133 54.9727 78.8333 54.9594 78.86C54.9194 78.98 54.9194 79.0933 54.9594 79.2C55.0127 79.3067 55.0994 79.3867 55.2194 79.44C55.2994 79.48 55.3794 79.4733 55.4594 79.42C55.5794 79.34 55.6727 79.2467 55.7394 79.14C55.9394 78.74 56.0594 78.3133 56.0994 77.86ZM58.9614 75.52C59.0014 74.4667 59.0814 73.38 59.2014 72.26C59.3347 71.1267 59.5347 69.9933 59.8014 68.86C59.8814 68.5533 59.9681 68.2467 60.0614 67.94C60.1681 67.6333 60.2881 67.3267 60.4214 67.02C60.6081 66.58 60.8414 66.1933 61.1214 65.86C61.1881 65.7933 61.2481 65.7333 61.3014 65.68C61.3681 65.6133 61.4347 65.5533 61.5014 65.5C61.7414 65.34 61.9814 65.28 62.2214 65.32C62.5014 65.3867 62.7081 65.54 62.8414 65.78C63.0014 66.1133 63.1014 66.4667 63.1414 66.84C63.1814 67.1867 63.1947 67.5267 63.1814 67.86C63.1681 68.18 63.1414 68.5067 63.1014 68.84C62.9547 70.0267 62.7081 71.18 62.3614 72.3C62.0147 73.4067 61.6014 74.5 61.1214 75.58C61.0681 75.6867 61.0147 75.8 60.9614 75.92C60.9081 76.0267 60.8481 76.1333 60.7814 76.24C60.7414 76.32 60.7214 76.4 60.7214 76.48C60.7081 76.8933 60.7147 77.3067 60.7414 77.72C60.7681 78.12 60.8281 78.5133 60.9214 78.9C60.9347 78.9667 60.9481 79.0333 60.9614 79.1C60.9747 79.1667 61.0014 79.2333 61.0414 79.3C61.0947 79.42 61.1881 79.46 61.3214 79.42C61.4547 79.38 61.5681 79.3133 61.6614 79.22C62.1281 78.86 62.5214 78.4733 62.8414 78.06C62.9881 77.8867 63.1214 77.7133 63.2414 77.54C63.3747 77.3667 63.5147 77.1867 63.6614 77C63.7147 76.92 63.7614 76.86 63.8014 76.82C63.8681 76.7533 63.9414 76.74 64.0214 76.78C64.1147 76.82 64.1481 76.9 64.1214 77.02C64.1081 77.0467 64.0947 77.0733 64.0814 77.1C64.0814 77.1133 64.0681 77.1333 64.0414 77.16C63.7614 77.6133 63.4747 78.06 63.1814 78.5C62.9014 78.9267 62.5881 79.34 62.2414 79.74C62.0281 80.02 61.8014 80.2333 61.5614 80.38C61.2947 80.5533 61.0147 80.6267 60.7214 80.6C60.4281 80.5733 60.1681 80.4467 59.9414 80.22C59.6747 79.98 59.4814 79.6733 59.3614 79.3C59.1614 78.74 59.0414 78.1533 59.0014 77.54C58.9747 77.2333 58.9614 76.9267 58.9614 76.62C58.9614 76.3 58.9614 75.9333 58.9614 75.52ZM62.1214 66.38C62.0681 66.4067 62.0281 66.4467 62.0014 66.5C61.9881 66.54 61.9681 66.58 61.9414 66.62C61.8747 66.7667 61.8147 66.92 61.7614 67.08C61.7214 67.2267 61.6814 67.38 61.6414 67.54C61.5347 68.0067 61.4414 68.4733 61.3614 68.94C61.2947 69.3933 61.2281 69.8533 61.1614 70.32C61.0681 71.0133 60.9881 71.7067 60.9214 72.4C60.8547 73.0933 60.8081 73.7933 60.7814 74.5C60.7547 74.54 60.7547 74.5933 60.7814 74.66C60.8347 74.62 60.8614 74.5667 60.8614 74.5C61.1947 73.5667 61.4814 72.6267 61.7214 71.68C61.9614 70.7333 62.1347 69.76 62.2414 68.76C62.2681 68.4667 62.2881 68.18 62.3014 67.9C62.3281 67.62 62.3281 67.3333 62.3014 67.04C62.2881 66.9333 62.2681 66.8267 62.2414 66.72C62.2281 66.6 62.1881 66.4867 62.1214 66.38ZM66.9178 76.44C66.9178 76.56 66.9111 76.6733 66.8978 76.78C66.8978 76.8867 66.8911 76.9933 66.8778 77.1C66.8645 77.1667 66.8645 77.2067 66.8778 77.22C66.8911 77.2333 66.9311 77.24 66.9978 77.24C67.2911 77.2133 67.5711 77.1733 67.8378 77.12C68.1178 77.0667 68.3978 77.0067 68.6778 76.94C68.7178 76.94 68.7445 76.9333 68.7578 76.92C68.8645 76.8933 68.9378 76.9267 68.9778 77.02C69.0445 77.1133 69.0311 77.2067 68.9378 77.3C68.9111 77.34 68.8711 77.3667 68.8178 77.38C68.7778 77.3933 68.7311 77.4133 68.6778 77.44C68.0911 77.6667 67.5045 77.8067 66.9178 77.86C66.7711 77.8867 66.6911 77.96 66.6778 78.08C66.5578 78.5067 66.3778 78.9067 66.1378 79.28C65.9778 79.52 65.8111 79.7133 65.6378 79.86C65.4245 80.02 65.1645 80.1067 64.8578 80.12C64.5511 80.1467 64.2645 80.0267 63.9978 79.76C63.7445 79.5067 63.5711 79.2267 63.4778 78.92C63.3711 78.6133 63.3045 78.3067 63.2778 78C63.2511 77.6933 63.2578 77.3867 63.2978 77.08C63.3245 76.92 63.3778 76.8067 63.4578 76.74C63.5778 76.6333 63.6111 76.5 63.5578 76.34C63.3711 75.78 63.4178 75.2467 63.6978 74.74C63.8311 74.46 63.9911 74.2533 64.1778 74.12C64.3778 73.9867 64.5778 73.9067 64.7778 73.88C64.9911 73.84 65.1978 73.8467 65.3978 73.9C65.6111 73.9533 65.8045 74.04 65.9778 74.16C66.2845 74.3733 66.5111 74.6667 66.6578 75.04C66.7378 75.2 66.7911 75.3667 66.8178 75.54C66.8445 75.7133 66.8711 75.8867 66.8978 76.06C66.9111 76.1267 66.9178 76.1933 66.9178 76.26C66.9178 76.3267 66.9178 76.3867 66.9178 76.44ZM66.0378 76.52C66.0378 76.4533 66.0378 76.3867 66.0378 76.32C66.0378 76.2533 66.0311 76.18 66.0178 76.1C65.9911 75.9533 65.9578 75.8067 65.9178 75.66C65.8778 75.5133 65.8111 75.3733 65.7178 75.24C65.5578 75.0133 65.3578 74.88 65.1178 74.84C64.8911 74.8 64.7111 74.86 64.5778 75.02C64.4445 75.1667 64.3578 75.3667 64.3178 75.62C64.2911 75.86 64.3311 76.06 64.4378 76.22C64.5045 76.34 64.5845 76.4533 64.6778 76.56C64.7711 76.6533 64.8711 76.74 64.9778 76.82C65.1111 76.9133 65.2511 76.9867 65.3978 77.04C65.5578 77.0933 65.7178 77.14 65.8778 77.18C65.9578 77.2067 65.9978 77.18 65.9978 77.1C66.0245 77.0067 66.0378 76.9133 66.0378 76.82C66.0378 76.7267 66.0378 76.6267 66.0378 76.52ZM64.8778 77.92C64.8778 78.0133 64.8911 78.1267 64.9178 78.26C64.9311 78.4333 64.9711 78.6 65.0378 78.76C65.0645 78.84 65.0911 78.8867 65.1178 78.9C65.1445 78.9 65.1911 78.8733 65.2578 78.82L65.3178 78.76C65.5178 78.56 65.6711 78.3 65.7778 77.98C65.8045 77.9267 65.8111 77.8933 65.7978 77.88C65.7978 77.8667 65.7645 77.8533 65.6978 77.84C65.5911 77.8133 65.4778 77.7933 65.3578 77.78C65.2511 77.7533 65.1445 77.7267 65.0378 77.7C64.9711 77.6733 64.9311 77.6667 64.9178 77.68C64.9045 77.6933 64.8911 77.7333 64.8778 77.8V77.92ZM69.582 77.96C69.582 77.6267 69.602 77.3 69.642 76.98C69.6554 76.8867 69.6154 76.8333 69.522 76.82C69.3354 76.8067 69.142 76.7533 68.942 76.66C68.8887 76.6467 68.8354 76.6467 68.782 76.66C68.6887 76.6867 68.642 76.6533 68.642 76.56C68.642 76.52 68.622 76.48 68.582 76.44C68.3554 76.2533 68.1887 76.0467 68.082 75.82C67.962 75.58 67.882 75.3267 67.842 75.06C67.762 74.4467 67.7954 73.8733 67.942 73.34C67.9954 73.18 68.0554 73.0267 68.122 72.88C68.202 72.72 68.2954 72.5733 68.402 72.44C68.522 72.3067 68.6754 72.2067 68.862 72.14C69.0087 72.0867 69.1554 72.0867 69.302 72.14C69.4487 72.1933 69.562 72.2867 69.642 72.42C69.762 72.62 69.8354 72.8667 69.862 73.16C69.8887 73.4667 69.8754 73.7733 69.822 74.08C69.7687 74.3733 69.6954 74.6667 69.602 74.96L69.422 75.5C69.382 75.58 69.402 75.6333 69.482 75.66C69.5487 75.7 69.6154 75.7333 69.682 75.76C69.8154 75.8133 69.942 75.8667 70.062 75.92C70.182 75.96 70.3087 76.0067 70.442 76.06C70.682 76.1667 70.8087 76.3333 70.822 76.56C70.8487 76.64 70.862 76.72 70.862 76.8C70.862 76.8667 70.862 76.94 70.862 77.02C70.8487 77.2067 70.8354 77.4 70.822 77.6C70.8087 77.7867 70.802 77.9733 70.802 78.16C70.802 78.3467 70.8154 78.5333 70.842 78.72C70.8687 78.8933 70.9154 79.0667 70.982 79.24L71.042 79.42C71.1487 79.66 71.3287 79.72 71.582 79.6C71.6487 79.5733 71.7354 79.52 71.842 79.44C72.2687 79.0933 72.6287 78.6667 72.922 78.16C73.1354 77.84 73.3154 77.5333 73.462 77.24C73.4887 77.1733 73.522 77.12 73.562 77.08C73.602 77.0267 73.642 76.9733 73.682 76.92C73.762 76.84 73.8287 76.82 73.882 76.86C73.962 76.9133 73.9887 76.9867 73.962 77.08C73.9354 77.2 73.8754 77.3333 73.782 77.48C73.7154 77.5733 73.6554 77.6667 73.602 77.76C73.562 77.8533 73.5154 77.9467 73.462 78.04C73.1154 78.76 72.682 79.3867 72.162 79.92C72.042 80.04 71.9154 80.1467 71.782 80.24C71.6487 80.3333 71.502 80.3933 71.342 80.42C70.942 80.5133 70.5887 80.42 70.282 80.14C70.0954 79.98 69.9487 79.7933 69.842 79.58C69.7487 79.3667 69.682 79.14 69.642 78.9C69.5887 78.58 69.5687 78.2667 69.582 77.96ZM69.042 75.06C69.082 74.7933 69.1154 74.5333 69.142 74.28C69.182 74.0133 69.1687 73.7467 69.102 73.48C68.9287 74 68.9087 74.5267 69.042 75.06ZM73.0234 77.94C73.0368 77.38 73.1501 76.88 73.3634 76.44C73.5901 76 73.9034 75.6067 74.3034 75.26C74.3968 75.1667 74.4968 75.0933 74.6034 75.04C74.7234 74.9733 74.8434 74.92 74.9634 74.88C75.2168 74.8 75.4768 74.8 75.7434 74.88C76.0101 74.9867 76.1834 75.1667 76.2634 75.42C76.3434 75.7133 76.3368 75.9933 76.2434 76.26C76.1368 76.5133 75.9901 76.7333 75.8034 76.92C75.6168 77.1067 75.4234 77.28 75.2234 77.44C75.0234 77.6 74.7901 77.7333 74.5234 77.84C74.4701 77.8533 74.4301 77.8933 74.4034 77.96C74.3634 78.3867 74.4768 78.7333 74.7434 79C74.9701 79.24 75.2434 79.32 75.5634 79.24C75.9234 79.16 76.2568 79 76.5634 78.76C76.9368 78.48 77.3034 78.14 77.6634 77.74C77.7568 77.6333 77.8501 77.5267 77.9434 77.42C78.0368 77.3133 78.1301 77.2067 78.2234 77.1C78.2501 77.0733 78.2768 77.04 78.3034 77C78.3434 76.96 78.3768 76.9267 78.4034 76.9C78.4701 76.8333 78.5501 76.82 78.6434 76.86C78.7501 76.9133 78.7768 77 78.7234 77.12C78.6968 77.1733 78.6768 77.2067 78.6634 77.22C78.3834 77.6333 78.0901 78.0333 77.7834 78.42C77.4768 78.7933 77.1301 79.1333 76.7434 79.44C76.5968 79.56 76.4434 79.6667 76.2834 79.76C76.1368 79.8533 75.9701 79.9333 75.7834 80C75.4901 80.12 75.1968 80.1667 74.9034 80.14C74.6234 80.1267 74.3568 80.0533 74.1034 79.92C73.8634 79.7867 73.6501 79.6067 73.4634 79.38C73.2901 79.14 73.1701 78.8667 73.1034 78.56C73.0901 78.5067 73.0768 78.4533 73.0634 78.4C73.0634 78.3467 73.0568 78.2867 73.0434 78.22C73.0434 78.1667 73.0368 78.12 73.0234 78.08C73.0234 78.0267 73.0234 77.98 73.0234 77.94ZM74.5834 77.3C74.6101 77.3 74.6301 77.2933 74.6434 77.28C75.0434 77 75.3234 76.6467 75.4834 76.22C75.5234 76.1267 75.5368 76.0533 75.5234 76C75.5234 75.92 75.4901 75.8933 75.4234 75.92C75.3301 75.9733 75.2368 76.0533 75.1434 76.16C75.0234 76.32 74.9168 76.4867 74.8234 76.66C74.7301 76.8333 74.6501 77.0133 74.5834 77.2C74.5834 77.2267 74.5768 77.2467 74.5634 77.26C74.5634 77.26 74.5701 77.2733 74.5834 77.3ZM86.3202 76.92C86.2935 76.8667 86.2602 76.8267 86.2202 76.8C86.1935 76.76 86.1668 76.72 86.1402 76.68C85.4602 75.9467 84.9068 75.1467 84.4802 74.28C84.0668 73.4133 83.7468 72.4933 83.5202 71.52C83.4535 71.2 83.4135 70.88 83.4002 70.56C83.4002 70.2267 83.4335 69.8933 83.5002 69.56C83.5935 69.12 83.7668 68.7 84.0202 68.3C84.2468 67.9133 84.5135 67.5533 84.8202 67.22C85.1268 66.8867 85.4602 66.5867 85.8202 66.32C86.6202 65.7067 87.4602 65.2133 88.3402 64.84C89.2335 64.4667 90.1668 64.1867 91.1402 64C91.5535 63.9333 91.9668 63.8933 92.3802 63.88C92.7935 63.8533 93.2068 63.8733 93.6202 63.94C93.9668 63.9933 94.3135 64.0933 94.6602 64.24C94.8468 64.3333 95.0135 64.44 95.1602 64.56C95.3068 64.6667 95.4335 64.8067 95.5402 64.98C95.6068 65.0733 95.6668 65.1667 95.7202 65.26C95.7735 65.34 95.8268 65.4267 95.8802 65.52C96.0135 65.7733 96.0868 66.0333 96.1002 66.3C96.1268 66.54 96.0668 66.7733 95.9202 67C95.7868 67.2133 95.6068 67.36 95.3802 67.44C95.2868 67.4667 95.1802 67.46 95.0602 67.42C94.9535 67.38 94.8668 67.3267 94.8002 67.26C94.7735 67.2067 94.7602 67.1267 94.7602 67.02C94.7735 66.9 94.8002 66.8067 94.8402 66.74C94.8668 66.7 94.9202 66.64 95.0002 66.56C95.0668 66.5067 95.0802 66.44 95.0402 66.36C94.9735 66.2267 94.8935 66.1133 94.8002 66.02C94.7068 65.9133 94.5868 65.8333 94.4402 65.78C94.1202 65.6733 93.7735 65.6067 93.4002 65.58C92.5335 65.5533 91.7135 65.64 90.9402 65.84C90.6735 65.9067 90.4135 65.98 90.1602 66.06C89.9068 66.1267 89.6468 66.2067 89.3802 66.3C89.2735 66.3267 89.2135 66.3533 89.2002 66.38C89.1868 66.3933 89.1935 66.4533 89.2202 66.56C89.2335 66.6667 89.2402 66.7667 89.2402 66.86C89.2402 66.9533 89.2402 67.0467 89.2402 67.14C89.1868 67.6733 89.1268 68.2067 89.0602 68.74C88.9935 69.26 88.9268 69.7867 88.8602 70.32C88.7268 71.3067 88.6335 72.2933 88.5802 73.28C88.5268 74.2533 88.5068 75.24 88.5202 76.24C88.5202 76.2667 88.5268 76.2867 88.5402 76.3C88.5402 76.38 88.5468 76.4333 88.5602 76.46C88.5735 76.4733 88.6268 76.4733 88.7202 76.46C89.2668 76.38 89.8335 76.32 90.4202 76.28C90.6602 76.2667 90.9002 76.26 91.1402 76.26C91.3802 76.26 91.6135 76.2867 91.8402 76.34C91.9335 76.3667 92.0202 76.3933 92.1002 76.42C92.1802 76.4333 92.2602 76.4733 92.3402 76.54C92.4735 76.6333 92.5535 76.76 92.5802 76.92C92.6202 77.0667 92.6002 77.2133 92.5202 77.36C92.4802 77.44 92.4202 77.52 92.3402 77.6C92.2735 77.6933 92.1802 77.7333 92.0602 77.72C91.9402 77.7067 91.8402 77.66 91.7602 77.58C91.7335 77.54 91.7202 77.5 91.7202 77.46C91.7202 77.42 91.7202 77.3733 91.7202 77.32C91.7202 77.2533 91.7135 77.2133 91.7002 77.2C91.6868 77.1867 91.6468 77.18 91.5802 77.18C91.3935 77.1533 91.2135 77.1467 91.0402 77.16C90.8802 77.16 90.7068 77.1733 90.5202 77.2C90.2268 77.2267 89.9335 77.26 89.6402 77.3C89.3468 77.34 89.0535 77.3933 88.7602 77.46C88.6668 77.4733 88.6068 77.4867 88.5802 77.5C88.5668 77.5133 88.5668 77.5733 88.5802 77.68C88.6202 78.32 88.6602 78.96 88.7002 79.6C88.7402 80.2267 88.8068 80.86 88.9002 81.5C88.9135 81.62 88.9135 81.74 88.9002 81.86C88.9002 82.0733 88.7802 82.18 88.5402 82.18C88.3268 82.1667 88.1935 82.0667 88.1402 81.88C87.9535 81.1733 87.8135 80.4667 87.7202 79.76C87.6935 79.5467 87.6668 79.3333 87.6402 79.12C87.6135 78.9067 87.5868 78.6933 87.5602 78.48C87.5468 78.36 87.5068 78.26 87.4402 78.18C87.3868 78.1 87.3268 78.02 87.2602 77.94C87.2335 77.9 87.1735 77.8933 87.0802 77.92C86.9602 77.9733 86.8335 78.0267 86.7002 78.08C86.5802 78.12 86.4602 78.1667 86.3402 78.22C86.1535 78.3133 85.9668 78.4 85.7802 78.48C85.6068 78.56 85.4268 78.6467 85.2402 78.74C85.1602 78.7667 85.0802 78.7933 85.0002 78.82C84.9335 78.8333 84.8535 78.8267 84.7602 78.8C84.4802 78.7333 84.3202 78.5667 84.2802 78.3C84.2535 78.1533 84.2735 78.0333 84.3402 77.94C84.4202 77.8333 84.5135 77.74 84.6202 77.66C84.6868 77.62 84.7468 77.5867 84.8002 77.56C84.8668 77.52 84.9335 77.4867 85.0002 77.46C85.1868 77.3667 85.3735 77.2867 85.5602 77.22C85.7602 77.14 85.9535 77.0667 86.1402 77C86.1668 76.9867 86.1935 76.98 86.2202 76.98C86.2602 76.9667 86.2935 76.9467 86.3202 76.92ZM87.4202 67.24C87.3268 67.3067 87.2335 67.3667 87.1402 67.42C87.0602 67.46 86.9802 67.5133 86.9002 67.58C86.3535 67.9267 85.8602 68.3533 85.4202 68.86C84.7935 69.6067 84.5735 70.46 84.7602 71.42C84.9468 72.3933 85.2402 73.3133 85.6402 74.18C86.0402 75.0333 86.5468 75.8467 87.1602 76.62C87.2135 76.6733 87.2668 76.6933 87.3202 76.68C87.3602 76.6667 87.3802 76.6467 87.3802 76.62C87.3802 76.5933 87.3802 76.5667 87.3802 76.54C87.3668 76.4333 87.3602 76.3267 87.3602 76.22C87.3602 76.1133 87.3535 76.0067 87.3402 75.9C87.3002 75.0467 87.2802 74.2 87.2802 73.36C87.2802 72.5067 87.2935 71.6467 87.3202 70.78C87.3335 70.2333 87.3535 69.6933 87.3802 69.16C87.4068 68.6133 87.4335 68.06 87.4602 67.5C87.4602 67.46 87.4602 67.42 87.4602 67.38C87.4602 67.34 87.4468 67.2933 87.4202 67.24ZM96.9252 77.42C96.8718 77.46 96.8385 77.5 96.8252 77.54C96.8252 77.58 96.8185 77.6133 96.8052 77.64C96.7118 77.9067 96.6118 78.18 96.5052 78.46C96.4118 78.7267 96.3052 78.9933 96.1852 79.26C96.0918 79.46 95.9918 79.6333 95.8852 79.78C95.6985 80.02 95.4652 80.1467 95.1852 80.16C94.9185 80.1867 94.6718 80.0867 94.4452 79.86C94.2985 79.7133 94.1785 79.5467 94.0852 79.36C93.9918 79.16 93.9252 78.9533 93.8852 78.74C93.7918 78.3133 93.7585 77.8933 93.7852 77.48C93.8252 77.0533 93.9052 76.6267 94.0252 76.2C94.0652 76.0667 94.1185 75.92 94.1852 75.76C94.2518 75.5733 94.3518 75.4267 94.4852 75.32C94.6452 75.1867 94.8118 75.1467 94.9852 75.2C95.2385 75.28 95.3718 75.44 95.3852 75.68C95.4118 75.8667 95.3918 76.06 95.3252 76.26C95.1785 76.8467 95.1185 77.4333 95.1452 78.02C95.1452 78.18 95.1585 78.3333 95.1852 78.48C95.2252 78.6133 95.2785 78.7533 95.3452 78.9C95.3718 78.98 95.3918 79.02 95.4052 79.02C95.4318 79.02 95.4718 78.9867 95.5252 78.92C95.6585 78.7867 95.7652 78.6267 95.8452 78.44C95.9652 78.2133 96.0718 77.9867 96.1652 77.76C96.2718 77.5333 96.3718 77.3067 96.4652 77.08C96.5585 76.8533 96.6452 76.6267 96.7252 76.4C96.8185 76.1733 96.9118 75.9467 97.0052 75.72C97.0318 75.6533 97.0585 75.6 97.0852 75.56C97.1118 75.5067 97.1718 75.48 97.2652 75.48C97.2918 75.48 97.3052 75.4733 97.3052 75.46C97.3185 75.4467 97.3385 75.4333 97.3652 75.42C97.3918 75.3933 97.4185 75.3667 97.4452 75.34C97.4852 75.3 97.5252 75.2667 97.5652 75.24C97.6985 75.1867 97.8185 75.1933 97.9252 75.26C98.0452 75.3133 98.1185 75.4133 98.1452 75.56C98.1585 75.6133 98.1652 75.7 98.1652 75.82C98.1518 76.18 98.1652 76.54 98.2052 76.9C98.2452 77.2467 98.2852 77.6 98.3252 77.96C98.3518 78.0667 98.3785 78.1733 98.4052 78.28C98.4318 78.3733 98.4585 78.4733 98.4852 78.58C98.5118 78.6733 98.5452 78.76 98.5852 78.84C98.6385 78.9067 98.6918 78.9733 98.7452 79.04C98.8252 79.0933 98.9052 79.1133 98.9852 79.1C99.1185 79.0733 99.2318 79.0267 99.3252 78.96C99.4718 78.88 99.6118 78.7867 99.7452 78.68C99.8785 78.56 99.9985 78.4333 100.105 78.3C100.465 77.8467 100.785 77.3667 101.065 76.86C101.145 76.7267 101.218 76.68 101.285 76.72C101.378 76.7467 101.405 76.84 101.365 77C101.352 77.0267 101.338 77.0533 101.325 77.08C101.325 77.1067 101.318 77.1333 101.305 77.16C100.945 77.92 100.492 78.6333 99.9452 79.3C99.7052 79.5933 99.4185 79.84 99.0852 80.04C98.8318 80.1867 98.5852 80.2333 98.3452 80.18C98.1052 80.1267 97.9052 80.0133 97.7452 79.84C97.2652 79.3333 96.9918 78.72 96.9252 78C96.9118 77.9067 96.9052 77.8133 96.9052 77.72C96.9185 77.6267 96.9252 77.5267 96.9252 77.42ZM101.633 77.96C101.633 77.6267 101.653 77.3 101.693 76.98C101.706 76.8867 101.666 76.8333 101.573 76.82C101.386 76.8067 101.193 76.7533 100.993 76.66C100.939 76.6467 100.886 76.6467 100.833 76.66C100.739 76.6867 100.693 76.6533 100.693 76.56C100.693 76.52 100.673 76.48 100.633 76.44C100.406 76.2533 100.239 76.0467 100.133 75.82C100.013 75.58 99.9328 75.3267 99.8928 75.06C99.8128 74.4467 99.8461 73.8733 99.9928 73.34C100.046 73.18 100.106 73.0267 100.173 72.88C100.253 72.72 100.346 72.5733 100.453 72.44C100.573 72.3067 100.726 72.2067 100.913 72.14C101.059 72.0867 101.206 72.0867 101.353 72.14C101.499 72.1933 101.613 72.2867 101.693 72.42C101.813 72.62 101.886 72.8667 101.913 73.16C101.939 73.4667 101.926 73.7733 101.873 74.08C101.819 74.3733 101.746 74.6667 101.653 74.96L101.473 75.5C101.433 75.58 101.453 75.6333 101.533 75.66C101.599 75.7 101.666 75.7333 101.733 75.76C101.866 75.8133 101.993 75.8667 102.113 75.92C102.233 75.96 102.359 76.0067 102.493 76.06C102.733 76.1667 102.859 76.3333 102.873 76.56C102.899 76.64 102.913 76.72 102.913 76.8C102.913 76.8667 102.913 76.94 102.913 77.02C102.899 77.2067 102.886 77.4 102.873 77.6C102.859 77.7867 102.853 77.9733 102.853 78.16C102.853 78.3467 102.866 78.5333 102.893 78.72C102.919 78.8933 102.966 79.0667 103.033 79.24L103.093 79.42C103.199 79.66 103.379 79.72 103.633 79.6C103.699 79.5733 103.786 79.52 103.893 79.44C104.319 79.0933 104.679 78.6667 104.973 78.16C105.186 77.84 105.366 77.5333 105.513 77.24C105.539 77.1733 105.573 77.12 105.613 77.08C105.653 77.0267 105.693 76.9733 105.733 76.92C105.813 76.84 105.879 76.82 105.933 76.86C106.013 76.9133 106.039 76.9867 106.013 77.08C105.986 77.2 105.926 77.3333 105.833 77.48C105.766 77.5733 105.706 77.6667 105.653 77.76C105.613 77.8533 105.566 77.9467 105.513 78.04C105.166 78.76 104.733 79.3867 104.213 79.92C104.093 80.04 103.966 80.1467 103.833 80.24C103.699 80.3333 103.553 80.3933 103.393 80.42C102.993 80.5133 102.639 80.42 102.333 80.14C102.146 79.98 101.999 79.7933 101.893 79.58C101.799 79.3667 101.733 79.14 101.693 78.9C101.639 78.58 101.619 78.2667 101.633 77.96ZM101.093 75.06C101.133 74.7933 101.166 74.5333 101.193 74.28C101.233 74.0133 101.219 73.7467 101.153 73.48C100.979 74 100.959 74.5267 101.093 75.06ZM105.294 69.72C104.974 69.8 104.654 69.9 104.334 70.02C104.308 70.0333 104.281 70.0467 104.254 70.06C104.214 70.0733 104.181 70.0867 104.154 70.1C104.008 70.1533 103.894 70.1267 103.814 70.02C103.761 69.98 103.714 69.9467 103.674 69.92C103.634 69.88 103.601 69.8267 103.574 69.76C103.561 69.7333 103.548 69.7067 103.534 69.68C103.508 69.64 103.508 69.5933 103.534 69.54C103.561 69.4733 103.588 69.4133 103.614 69.36C103.641 69.3067 103.688 69.26 103.754 69.22C103.808 69.1933 103.861 69.1733 103.914 69.16C103.968 69.1333 104.028 69.1067 104.094 69.08C104.454 69 104.814 68.94 105.174 68.9C105.268 68.8733 105.321 68.8533 105.334 68.84C105.348 68.8267 105.361 68.7733 105.374 68.68C105.388 68.4 105.394 68.12 105.394 67.84C105.408 67.56 105.434 67.28 105.474 67C105.501 66.88 105.521 66.76 105.534 66.64C105.561 66.52 105.588 66.4 105.614 66.28C105.641 66.1333 105.688 66 105.754 65.88C105.834 65.7467 105.928 65.6267 106.034 65.52C106.141 65.4133 106.281 65.3533 106.454 65.34C106.628 65.3133 106.781 65.3333 106.914 65.4C107.194 65.5333 107.354 65.7667 107.394 66.1C107.421 66.2467 107.434 66.3933 107.434 66.54C107.448 66.6867 107.454 66.8333 107.454 66.98C107.428 67.22 107.401 67.4667 107.374 67.72C107.348 67.96 107.321 68.2 107.294 68.44C107.281 68.5467 107.281 68.6067 107.294 68.62C107.308 68.6333 107.361 68.6333 107.454 68.62C107.988 68.5533 108.514 68.5 109.034 68.46C109.554 68.4067 110.081 68.3667 110.614 68.34C110.854 68.3267 111.094 68.32 111.334 68.32C111.588 68.32 111.841 68.3333 112.094 68.36C112.161 68.3733 112.228 68.3867 112.294 68.4C112.374 68.4133 112.448 68.44 112.514 68.48C112.648 68.5733 112.688 68.6933 112.634 68.84C112.568 68.9733 112.468 69.02 112.334 68.98C112.068 68.9133 111.794 68.8867 111.514 68.9C111.248 68.9133 110.981 68.9333 110.714 68.96C110.154 69 109.594 69.0533 109.034 69.12C108.488 69.1867 107.934 69.2533 107.374 69.32C107.281 69.3333 107.228 69.3467 107.214 69.36C107.201 69.3733 107.181 69.4267 107.154 69.52C107.021 70.6133 106.908 71.7 106.814 72.78C106.734 73.86 106.701 74.9467 106.714 76.04C106.714 76.4 106.721 76.7667 106.734 77.14C106.748 77.5 106.788 77.8533 106.854 78.2C106.881 78.3867 106.908 78.5667 106.934 78.74C106.974 78.9 107.028 79.0667 107.094 79.24C107.161 79.4533 107.261 79.6 107.394 79.68C107.474 79.7467 107.534 79.78 107.574 79.78C107.614 79.78 107.674 79.7533 107.754 79.7C107.808 79.6733 107.854 79.6467 107.894 79.62C107.934 79.58 107.974 79.54 108.014 79.5C108.361 79.1933 108.641 78.8533 108.854 78.48C109.081 78.0933 109.288 77.7 109.474 77.3C109.501 77.2333 109.528 77.1733 109.554 77.12C109.581 77.0667 109.608 77.0067 109.634 76.94C109.661 76.8867 109.694 76.84 109.734 76.8C109.788 76.7467 109.848 76.7333 109.914 76.76C109.994 76.7867 110.034 76.8333 110.034 76.9C110.061 76.9933 110.054 77.0733 110.014 77.14C109.828 77.6333 109.614 78.1067 109.374 78.56C109.134 79.0133 108.834 79.4333 108.474 79.82C108.408 79.8867 108.348 79.9467 108.294 80C108.241 80.0533 108.181 80.1067 108.114 80.16C107.848 80.3867 107.548 80.4467 107.214 80.34C107.041 80.3 106.888 80.2267 106.754 80.12C106.621 80.0267 106.501 79.9067 106.394 79.76C106.301 79.6533 106.228 79.5333 106.174 79.4C106.121 79.2667 106.074 79.1333 106.034 79C105.928 78.6533 105.841 78.3067 105.774 77.96C105.708 77.6133 105.648 77.2667 105.594 76.92C105.474 76 105.394 75.08 105.354 74.16C105.328 73.2267 105.314 72.2933 105.314 71.36C105.314 71.1067 105.314 70.86 105.314 70.62C105.314 70.3667 105.321 70.1133 105.334 69.86C105.334 69.8067 105.321 69.76 105.294 69.72ZM112.18 76.6C112.127 76.6267 112.087 76.6533 112.06 76.68C112.047 76.6933 112.027 76.7133 112 76.74C111.76 77.0067 111.553 77.28 111.38 77.56C111.167 77.9067 110.96 78.2533 110.76 78.6C110.573 78.9333 110.393 79.2867 110.22 79.66C110.153 79.78 110.1 79.8933 110.06 80C110.02 80.08 109.98 80.1267 109.94 80.14C109.9 80.1667 109.847 80.18 109.78 80.18C109.633 80.18 109.533 80.1067 109.48 79.96C109.44 79.8267 109.407 79.7 109.38 79.58C109.353 79.46 109.333 79.3333 109.32 79.2C109.173 78.1867 109.08 77.1733 109.04 76.16C109.013 75.1467 109.007 74.1267 109.02 73.1C109.047 71.94 109.107 70.7933 109.2 69.66C109.24 69.1 109.3 68.5467 109.38 68C109.46 67.4533 109.553 66.9 109.66 66.34C109.727 66.0733 109.84 65.8867 110 65.78C110.187 65.6333 110.38 65.6067 110.58 65.7C110.793 65.78 110.92 65.92 110.96 66.12C110.987 66.24 111 66.36 111 66.48C111.013 66.5867 111.007 66.7 110.98 66.82C110.86 67.66 110.747 68.4933 110.64 69.32C110.547 70.1467 110.453 70.98 110.36 71.82C110.28 72.7 110.207 73.5733 110.14 74.44C110.073 75.2933 110.033 76.16 110.02 77.04C110.02 77.2667 110.02 77.5 110.02 77.74C110.02 77.98 110.027 78.2133 110.04 78.44V78.54C110.08 78.5267 110.1 78.5067 110.1 78.48C110.113 78.4533 110.127 78.4267 110.14 78.4C110.513 77.64 110.94 76.94 111.42 76.3C111.527 76.1667 111.633 76.0467 111.74 75.94C111.847 75.82 111.967 75.7067 112.1 75.6C112.313 75.44 112.527 75.3867 112.74 75.44C112.953 75.4933 113.113 75.64 113.22 75.88C113.3 76.04 113.36 76.2067 113.4 76.38C113.44 76.5533 113.473 76.7267 113.5 76.9C113.527 77.1267 113.54 77.3467 113.54 77.56C113.553 77.76 113.573 77.9667 113.6 78.18C113.613 78.2733 113.627 78.3667 113.64 78.46C113.653 78.54 113.673 78.6267 113.7 78.72C113.727 78.8133 113.76 78.8733 113.8 78.9C113.84 78.9267 113.913 78.9267 114.02 78.9C114.073 78.8733 114.12 78.8467 114.16 78.82C114.213 78.7933 114.267 78.7667 114.32 78.74C114.453 78.6333 114.58 78.5333 114.7 78.44C114.833 78.3333 114.953 78.22 115.06 78.1C115.22 77.9267 115.387 77.76 115.56 77.6C115.747 77.44 115.927 77.2733 116.1 77.1C116.113 77.0733 116.147 77.0467 116.2 77.02C116.253 76.9667 116.32 76.96 116.4 77C116.44 77.0267 116.46 77.0867 116.46 77.18C116.46 77.22 116.453 77.2533 116.44 77.28C116.427 77.3067 116.407 77.3333 116.38 77.36C116.14 77.6533 115.9 77.9467 115.66 78.24C115.433 78.5333 115.187 78.8133 114.92 79.08C114.853 79.1467 114.793 79.2067 114.74 79.26C114.687 79.3133 114.627 79.3667 114.56 79.42C114.347 79.5933 114.133 79.7067 113.92 79.76C113.533 79.8667 113.207 79.7933 112.94 79.54C112.7 79.3533 112.527 79.0867 112.42 78.74C112.327 78.4067 112.273 78.1 112.26 77.82C112.247 77.6733 112.24 77.5333 112.24 77.4C112.24 77.2533 112.233 77.1067 112.22 76.96C112.22 76.9067 112.213 76.8533 112.2 76.8C112.2 76.7333 112.193 76.6667 112.18 76.6ZM115.621 77.94C115.634 77.38 115.748 76.88 115.961 76.44C116.188 76 116.501 75.6067 116.901 75.26C116.994 75.1667 117.094 75.0933 117.201 75.04C117.321 74.9733 117.441 74.92 117.561 74.88C117.814 74.8 118.074 74.8 118.341 74.88C118.608 74.9867 118.781 75.1667 118.861 75.42C118.941 75.7133 118.934 75.9933 118.841 76.26C118.734 76.5133 118.588 76.7333 118.401 76.92C118.214 77.1067 118.021 77.28 117.821 77.44C117.621 77.6 117.388 77.7333 117.121 77.84C117.068 77.8533 117.028 77.8933 117.001 77.96C116.961 78.3867 117.074 78.7333 117.341 79C117.568 79.24 117.841 79.32 118.161 79.24C118.521 79.16 118.854 79 119.161 78.76C119.534 78.48 119.901 78.14 120.261 77.74C120.354 77.6333 120.448 77.5267 120.541 77.42C120.634 77.3133 120.728 77.2067 120.821 77.1C120.848 77.0733 120.874 77.04 120.901 77C120.941 76.96 120.974 76.9267 121.001 76.9C121.068 76.8333 121.148 76.82 121.241 76.86C121.348 76.9133 121.374 77 121.321 77.12C121.294 77.1733 121.274 77.2067 121.261 77.22C120.981 77.6333 120.688 78.0333 120.381 78.42C120.074 78.7933 119.728 79.1333 119.341 79.44C119.194 79.56 119.041 79.6667 118.881 79.76C118.734 79.8533 118.568 79.9333 118.381 80C118.088 80.12 117.794 80.1667 117.501 80.14C117.221 80.1267 116.954 80.0533 116.701 79.92C116.461 79.7867 116.248 79.6067 116.061 79.38C115.888 79.14 115.768 78.8667 115.701 78.56C115.688 78.5067 115.674 78.4533 115.661 78.4C115.661 78.3467 115.654 78.2867 115.641 78.22C115.641 78.1667 115.634 78.12 115.621 78.08C115.621 78.0267 115.621 77.98 115.621 77.94ZM117.181 77.3C117.208 77.3 117.228 77.2933 117.241 77.28C117.641 77 117.921 76.6467 118.081 76.22C118.121 76.1267 118.134 76.0533 118.121 76C118.121 75.92 118.088 75.8933 118.021 75.92C117.928 75.9733 117.834 76.0533 117.741 76.16C117.621 76.32 117.514 76.4867 117.421 76.66C117.328 76.8333 117.248 77.0133 117.181 77.2C117.181 77.2267 117.174 77.2467 117.161 77.26C117.161 77.26 117.168 77.2733 117.181 77.3ZM122.102 77.96C122.102 77.6267 122.122 77.3 122.162 76.98C122.175 76.8867 122.135 76.8333 122.042 76.82C121.855 76.8067 121.662 76.7533 121.462 76.66C121.408 76.6467 121.355 76.6467 121.302 76.66C121.208 76.6867 121.162 76.6533 121.162 76.56C121.162 76.52 121.142 76.48 121.102 76.44C120.875 76.2533 120.708 76.0467 120.602 75.82C120.482 75.58 120.402 75.3267 120.362 75.06C120.282 74.4467 120.315 73.8733 120.462 73.34C120.515 73.18 120.575 73.0267 120.642 72.88C120.722 72.72 120.815 72.5733 120.922 72.44C121.042 72.3067 121.195 72.2067 121.382 72.14C121.528 72.0867 121.675 72.0867 121.822 72.14C121.968 72.1933 122.082 72.2867 122.162 72.42C122.282 72.62 122.355 72.8667 122.382 73.16C122.408 73.4667 122.395 73.7733 122.342 74.08C122.288 74.3733 122.215 74.6667 122.122 74.96L121.942 75.5C121.902 75.58 121.922 75.6333 122.002 75.66C122.068 75.7 122.135 75.7333 122.202 75.76C122.335 75.8133 122.462 75.8667 122.582 75.92C122.702 75.96 122.828 76.0067 122.962 76.06C123.202 76.1667 123.328 76.3333 123.342 76.56C123.368 76.64 123.382 76.72 123.382 76.8C123.382 76.8667 123.382 76.94 123.382 77.02C123.368 77.2067 123.355 77.4 123.342 77.6C123.328 77.7867 123.322 77.9733 123.322 78.16C123.322 78.3467 123.335 78.5333 123.362 78.72C123.388 78.8933 123.435 79.0667 123.502 79.24L123.562 79.42C123.668 79.66 123.848 79.72 124.102 79.6C124.168 79.5733 124.255 79.52 124.362 79.44C124.788 79.0933 125.148 78.6667 125.442 78.16C125.655 77.84 125.835 77.5333 125.982 77.24C126.008 77.1733 126.042 77.12 126.082 77.08C126.122 77.0267 126.162 76.9733 126.202 76.92C126.282 76.84 126.348 76.82 126.402 76.86C126.482 76.9133 126.508 76.9867 126.482 77.08C126.455 77.2 126.395 77.3333 126.302 77.48C126.235 77.5733 126.175 77.6667 126.122 77.76C126.082 77.8533 126.035 77.9467 125.982 78.04C125.635 78.76 125.202 79.3867 124.682 79.92C124.562 80.04 124.435 80.1467 124.302 80.24C124.168 80.3333 124.022 80.3933 123.862 80.42C123.462 80.5133 123.108 80.42 122.802 80.14C122.615 79.98 122.468 79.7933 122.362 79.58C122.268 79.3667 122.202 79.14 122.162 78.9C122.108 78.58 122.088 78.2667 122.102 77.96ZM121.562 75.06C121.602 74.7933 121.635 74.5333 121.662 74.28C121.702 74.0133 121.688 73.7467 121.622 73.48C121.448 74 121.428 74.5267 121.562 75.06Z" fill="white"/>
</g>
<defs>
<filter id="filter0_d_3559_8880" x="0" y="0" width="167" height="62.0283" filterUnits="userSpaceOnUse" color-interpolation-filters="sRGB">
<feFlood flood-opacity="0" result="BackgroundImageFix"/>
<feColorMatrix in="SourceAlpha" type="matrix" values="0 0 0 0 0 0 0 0 0 0 0 0 0 0 0 0 0 0 127 0" result="hardAlpha"/>
<feOffset/>
<feGaussianBlur stdDeviation="2"/>
<feComposite in2="hardAlpha" operator="out"/>
<feColorMatrix type="matrix" values="0 0 0 0 0 0 0 0 0 0 0 0 0 0 0 0 0 0 0.25 0"/>
<feBlend mode="normal" in2="BackgroundImageFix" result="effect1_dropShadow_3559_8880"/>
<feBlend mode="normal" in="SourceGraphic" in2="effect1_dropShadow_3559_8880" result="shape"/>
</filter>
<filter id="filter1_d_3559_8880" x="121.938" y="41.6855" width="79.3105" height="40.7148" filterUnits="userSpaceOnUse" color-interpolation-filters="sRGB">
<feFlood flood-opacity="0" result="BackgroundImageFix"/>
<feColorMatrix in="SourceAlpha" type="matrix" values="0 0 0 0 0 0 0 0 0 0 0 0 0 0 0 0 0 0 127 0" result="hardAlpha"/>
<feOffset/>
<feGaussianBlur stdDeviation="2"/>
<feComposite in2="hardAlpha" operator="out"/>
<feColorMatrix type="matrix" values="0 0 0 0 0 0 0 0 0 0 0 0 0 0 0 0 0 0 0.25 0"/>
<feBlend mode="normal" in2="BackgroundImageFix" result="effect1_dropShadow_3559_8880"/>
<feBlend mode="normal" in="SourceGraphic" in2="effect1_dropShadow_3559_8880" result="shape"/>
</filter>
<filter id="filter2_d_3559_8880" x="187" y="30" width="27.0605" height="27.0605" filterUnits="userSpaceOnUse" color-interpolation-filters="sRGB">
<feFlood flood-opacity="0" result="BackgroundImageFix"/>
<feColorMatrix in="SourceAlpha" type="matrix" values="0 0 0 0 0 0 0 0 0 0 0 0 0 0 0 0 0 0 127 0" result="hardAlpha"/>
<feOffset/>
<feGaussianBlur stdDeviation="2"/>
<feComposite in2="hardAlpha" operator="out"/>
<feColorMatrix type="matrix" values="0 0 0 0 0 0 0 0 0 0 0 0 0 0 0 0 0 0 0.25 0"/>
<feBlend mode="normal" in2="BackgroundImageFix" result="effect1_dropShadow_3559_8880"/>
<feBlend mode="normal" in="SourceGraphic" in2="effect1_dropShadow_3559_8880" result="shape"/>
</filter>
<filter id="filter3_d_3559_8880" x="30.1602" y="59.8398" width="100.361" height="34.1406" filterUnits="userSpaceOnUse" color-interpolation-filters="sRGB">
<feFlood flood-opacity="0" result="BackgroundImageFix"/>
<feColorMatrix in="SourceAlpha" type="matrix" values="0 0 0 0 0 0 0 0 0 0 0 0 0 0 0 0 0 0 127 0" result="hardAlpha"/>
<feOffset/>
<feGaussianBlur stdDeviation="2"/>
<feComposite in2="hardAlpha" operator="out"/>
<feColorMatrix type="matrix" values="0 0 0 0 0 0 0 0 0 0 0 0 0 0 0 0 0 0 0.25 0"/>
<feBlend mode="normal" in2="BackgroundImageFix" result="effect1_dropShadow_3559_8880"/>
<feBlend mode="normal" in="SourceGraphic" in2="effect1_dropShadow_3559_8880" result="shape"/>
</filter>
<clipPath id="clip0_3559_8880">
<rect width="14" height="14" fill="white" transform="translate(203.209 34) rotate(60.6974)"/>
</clipPath>
</defs>
</svg>
